<?xml version="1.0" encoding="iso-8859-1"?>
<!-- Generator: Adobe Illustrator 19.0.0, SVG Export Plug-In . SVG Version: 6.00 Build 0)  -->
<svg version="1.1" id="Layer_1" xmlns="http://www.w3.org/2000/svg" xmlns:xlink="http://www.w3.org/1999/xlink" x="0px" y="0px"
	 viewBox="0 0 297 297" style="enable-background:new 0 0 297 297;" xml:space="preserve">
<g>
	<g>
		<g>
			<g>
				<circle style="fill:#345065;" cx="148.5" cy="148.5" r="148.5"/>
			</g>
		</g>
	</g>
	<path style="fill:#243F4F;" d="M296.575,137.201l-76.631-76.667L77.465,236.851l59.78,59.727c3.715,0.278,7.468,0.422,11.255,0.422
		c82.014,0,148.5-66.486,148.5-148.5C297,144.698,296.856,140.931,296.575,137.201z"/>
	<g>
		<path style="fill:#BDC3C7;" d="M83.791,239.25h129.417c5.27,0,9.542-4.272,9.542-9.542V67.291c0-5.27-4.272-9.541-9.542-9.541
			H83.791c-5.27,0-9.541,4.272-9.541,9.541v162.417C74.25,234.978,78.522,239.25,83.791,239.25z"/>
	</g>
	<g>
		<path style="fill:#9DA0A3;" d="M213.208,57.75h-65.542v181.5h65.542c5.27,0,9.542-4.272,9.542-9.542V67.292
			C222.75,62.022,218.478,57.75,213.208,57.75z"/>
	</g>
	<g>
		<rect x="86.5" y="71" style="fill:#FFFFFF;" width="124" height="155"/>
	</g>
	<g>
		<rect x="147.667" y="71" style="fill:#E3E5E4;" width="62.833" height="155"/>
	</g>
	<g>
		<path style="fill:#3498DB;" d="M175.417,49.5H165c0-9.113-7.387-16.5-16.5-16.5S132,40.387,132,49.5h-10.417
			c-3.36,0-6.083,2.724-6.083,6.083v20.833c0,3.36,2.724,6.083,6.083,6.083h53.833c3.36,0,6.083-2.724,6.083-6.083V55.583
			C181.5,52.224,178.776,49.5,175.417,49.5z"/>
	</g>
	<g>
		<path style="fill:#2980B9;" d="M175.417,49.5H165c0-9.113-7.387-16.5-16.5-16.5c-0.281,0-0.555,0.028-0.833,0.042V82.5h27.75
			c3.36,0,6.083-2.724,6.083-6.083V55.583C181.5,52.224,178.776,49.5,175.417,49.5z"/>
	</g>
	<g>
		<circle style="fill:#FFFFFF;" cx="148.5" cy="49.5" r="7"/>
	</g>
	<g>
		<circle style="fill:#3498DB;" cx="106" cy="106" r="5.5"/>
	</g>
	<g>
		<circle style="fill:#3498DB;" cx="106" cy="137.5" r="5.5"/>
	</g>
	<g>
		<circle style="fill:#3498DB;" cx="106" cy="170.5" r="5.5"/>
	</g>
	<g>
		<circle style="fill:#3498DB;" cx="106" cy="202" r="5.5"/>
	</g>
	<g>
		<path style="fill:#BDC3C7;" d="M186.5,109.5h-58c-1.933,0-3.5-1.567-3.5-3.5s1.567-3.5,3.5-3.5h58c1.933,0,3.5,1.567,3.5,3.5
			S188.433,109.5,186.5,109.5z"/>
	</g>
	<g>
		<path style="fill:#BDC3C7;" d="M186.5,141h-58c-1.933,0-3.5-1.567-3.5-3.5s1.567-3.5,3.5-3.5h58c1.933,0,3.5,1.567,3.5,3.5
			S188.433,141,186.5,141z"/>
	</g>
	<g>
		<path style="fill:#BDC3C7;" d="M186.5,174h-58c-1.933,0-3.5-1.567-3.5-3.5s1.567-3.5,3.5-3.5h58c1.933,0,3.5,1.567,3.5,3.5
			S188.433,174,186.5,174z"/>
	</g>
	<g>
		<path style="fill:#BDC3C7;" d="M186.5,205.5h-58c-1.933,0-3.5-1.567-3.5-3.5s1.567-3.5,3.5-3.5h58c1.933,0,3.5,1.567,3.5,3.5
			S188.433,205.5,186.5,205.5z"/>
	</g>
</g>
<g>
</g>
<g>
</g>
<g>
</g>
<g>
</g>
<g>
</g>
<g>
</g>
<g>
</g>
<g>
</g>
<g>
</g>
<g>
</g>
<g>
</g>
<g>
</g>
<g>
</g>
<g>
</g>
<g>
</g>
</svg>
