<?xml version="1.0" encoding="iso-8859-1"?>
<svg version="1.1" id="Layer_1" xmlns="http://www.w3.org/2000/svg" xmlns:xlink="http://www.w3.org/1999/xlink" x="0px" y="0px" viewBox="0 0 496 496" style="enable-background:new 0 0 496 496;" xml:space="preserve">
<path style="fill: #495053;" d="M480,444.8c0,19.2-16,35.2-35.2,35.2H51.2C32,480,16,464,16,444.8V51.2C16,32,32,16,51.2,16h393.6
	C464,16,480,32,480,51.2V444.8z"></path>
<path style="fill: #4b7b93;" d="M15.2,50.4c0-19.2,16-34.4,35.2-34.4h395.2c19.2,0,34.4,15.2,34.4,34.4v395.2
	c0,19.2-15.2,35.2-35.2,35.2"></path>
<path style="fill:#182624;" d="M445.6,32C456,32,464,40,464,50.4v395.2c0,10.4-8,18.4-18.4,18.4H50.4C40,464,32,456,32,445.6V50.4
	C32,40,40,32,50.4,32H448 M445.6,0H50.4C22.4,0,0,22.4,0,50.4v395.2c0,28,22.4,50.4,50.4,50.4h395.2c28,0,50.4-22.4,50.4-50.4V50.4
	C496,22.4,473.6,0,445.6,0L445.6,0z"></path>
<circle style="fill: #0b0d0e;" cx="248" cy="248" r="142.4"></circle>
<path style="fill: #f9f9f9b8;" d="M147.2,147.2C202.4,92,292.8,92,348,147.2s55.2,145.6,0,200.8"></path>
<path style="fill: #495053;" d="M248,405.6c-87.2,0-157.6-70.4-157.6-157.6S160.8,90.4,248,90.4S405.6,160.8,405.6,248
	S335.2,405.6,248,405.6z M248,121.6c-69.6,0-126.4,56.8-126.4,126.4S178.4,374.4,248,374.4S374.4,317.6,374.4,248
	S317.6,121.6,248,121.6z"></path>
</svg>
